<svg width="40" height="40" viewBox="0 0 40 40" fill="none" xmlns="http://www.w3.org/2000/svg">
<path d="M8.95333 29.1496L2.62061 35.4823C-0.873536 31.9882 -0.873536 26.3251 2.62061 22.831L5.44506 20.0076L2.62061 17.1832C-0.873536 13.689 -0.873536 8.02598 2.62061 4.53184L8.95333 10.8646C11.4212 13.3324 12.1485 16.8983 11.1211 20.0076C12.1485 23.1169 11.4353 26.6817 8.95333 29.1496ZM29.1496 31.0467C26.6817 28.5788 23.1169 27.8515 20.0076 28.8789C16.8983 27.8515 13.3324 28.5647 10.8646 31.0467L4.53184 37.3794C8.02598 40.8735 13.689 40.8735 17.1832 37.3794L20.0076 34.5549L22.831 37.3794C26.3251 40.8735 31.9882 40.8735 35.4823 37.3794L29.1496 31.0467ZM37.3794 22.831L34.5549 20.0076L37.3794 17.1832C40.8735 13.689 40.8735 8.02598 37.3794 4.53184L31.0467 10.8504C28.5788 13.3183 27.8515 16.8831 28.8789 19.9924C27.8515 23.1017 28.5647 26.6676 31.0467 29.1354L37.3794 35.4682C40.8735 31.9882 40.8735 26.3251 37.3794 22.831ZM10.8504 8.95333C13.3183 11.4212 16.8831 12.1485 19.9924 11.1211C23.1017 12.1485 26.6676 11.4353 29.1354 8.95333L35.4682 2.62061C31.974 -0.873536 26.311 -0.873536 22.8168 2.62061L19.9924 5.44506L17.169 2.62061C13.6749 -0.873536 8.01185 -0.873536 4.51771 2.62061L10.8504 8.95333Z" fill="black"/>
</svg>
